<svg xmlns="http://www.w3.org/2000/svg" viewBox="0 0 1525.99 1525.99"><rect width="1525.99" height="1525.99" rx="762.99" style="fill:#bababa"/><path d="M1024.35,448.75,452.69,1019.54a90.62,90.62,0,0,0-.1,128.16l.05,0h0a90.63,90.63,0,0,0,128.15,0l.05,0L1151.63,576a90,90,0,0,0-.05-127.23h0A90,90,0,0,0,1024.35,448.75Z" transform="translate(-37 -37)" style="fill:#181818"/><path d="M680.77,517.82A162.85,162.85,0,0,1,517.91,680.77c-90,0-163-72.88-163-162.95s73.06-162.94,163-162.94A162.85,162.85,0,0,1,680.77,517.82Zm564.35,564.36a162.85,162.85,0,0,1-162.86,162.94c-90,0-163-72.88-163-162.94a162.95,162.95,0,1,1,325.89,0Z" transform="translate(-37 -37)" style="fill:#181818;fill-rule:evenodd;isolation:isolate"/></svg>