<svg xmlns="http://www.w3.org/2000/svg" viewBox="0 0 1360.98 494.5"><path d="M811.32,127.62,744.36,318h-24l-64.7-190.42h18.93l25.14,75.43L732.5,302.5l33.9-99.45,26-75.43Z" transform="translate(-80.11 -110.75)" style="fill:#bababa"/><path d="M862.75,301.94h85.6V318H845.23V127.62H946.66v16.1H862.75v71.2h74V231h-74Z" transform="translate(-80.11 -110.75)" style="fill:#bababa"/><path d="M1104,318h-20.91l-47.75-77.41h-34.19V318H983.67V127.62h42.94q33.35,0,49.87,15.11t16.53,42.8q-.57,19.23-10.74,33.06t-28.82,18.93Zm-102.85-93H1032q20.91,0,32.21-11.58t11.3-28.82q0-41.53-46.9-41.54h-27.41Z" transform="translate(-80.11 -110.75)" style="fill:#bababa"/><path d="M1230.6,134.4v19.49q-6.78-4.51-17.8-7.63a79,79,0,0,0-21.47-3.11q-18.93,0-30.23,8.9t-11.31,23.6a29.92,29.92,0,0,0,3,13.56q3,5.92,10,10.88a108,108,0,0,0,12.29,7.62c3.49,1.8,8.8,4.2,16,7.21q9.89,4.23,15,6.64a119.94,119.94,0,0,1,13,7.49,52.08,52.08,0,0,1,12,10,50.25,50.25,0,0,1,7.35,12.71,44,44,0,0,1,3.25,17.09q0,24.87-16.67,38T1182.29,320q-29.4,0-50-12.43V288.1q8.48,6.5,21.89,10.73a89.94,89.94,0,0,0,27.27,4.24q20.05,0,31.22-8.76t11.16-25.14q0-12.44-8.48-20.21t-24.58-14.83q-2.27-1.12-9.89-4.38t-10.73-4.66q-3.12-1.41-9.61-4.8a52.16,52.16,0,0,1-9.46-5.94q-3-2.53-7.49-6.78a28.28,28.28,0,0,1-6.5-8.47,71.24,71.24,0,0,1-3.67-10,43.55,43.55,0,0,1-1.7-12.29q0-24,17.24-37.44t42.1-13.42Q1214.78,125.92,1230.6,134.4Z" transform="translate(-80.11 -110.75)" style="fill:#bababa"/><path d="M1274.11,222q0-44.92,22.46-71.62t60.89-26.7q39.55,0,61.59,26.42t22,71.9q0,45.21-22.32,71.77T1358,320.3q-37.86,0-60.88-26.84T1274.11,222Zm18.08,0q0,37.58,17.94,59.48T1358,303.35q31.08,0,48-21.61T1423,222q0-38.41-17.1-59.9t-48.45-21.47q-30.53,0-47.89,21.62T1292.19,222Z" transform="translate(-80.11 -110.75)" style="fill:#bababa"/><path d="M803.41,385.81v41.81a88.46,88.46,0,0,0-47.18-13q-22.89,0-38.43,16t-15.53,42.8q0,26.28,15.53,41.68t40.12,15.4q26.57,0,45.49-13.56v42.66q-17.24,10.74-49.72,10.73-41.82,0-69.93-27t-28.11-69.93q0-43.5,27.26-70.91T754,375.07Q786.18,375.07,803.41,385.81Z" transform="translate(-80.11 -110.75)" style="fill:#bababa"/><path d="M959.37,568l-11.58-39H881.11l-11.59,39H824l63.57-190.42h54.81L1006,568Zm-67.81-74h45.77l-2-6.78q-8.19-27.69-13.42-47.19t-6.35-25.14l-1.13-5.65q-2.26,15.54-20.91,78Z" transform="translate(-80.11 -110.75)" style="fill:#bababa"/><path d="M1140.75,386.09v40.69q-22.87-13.29-47.46-13.28-11,0-16.81,4.52a14.06,14.06,0,0,0-5.79,11.58q0,7.06,7.06,12.57t21.19,11.73q8.76,4,14.55,6.92a116.79,116.79,0,0,1,13.28,8.2,52.39,52.39,0,0,1,11.87,11,55.23,55.23,0,0,1,7.48,14.27,53,53,0,0,1,3.11,18.37q0,25.71-18.93,41.67t-50.29,16q-33.63,0-54.81-11.86v-43.8q25.69,18.66,54.81,18.65,9.88,0,16.39-5.22a16.76,16.76,0,0,0,6.49-13.71,17.05,17.05,0,0,0-.84-5.37,12.55,12.55,0,0,0-3.11-4.8,38.83,38.83,0,0,0-4.38-3.81,49.56,49.56,0,0,0-6.22-3.68c-2.73-1.41-5-2.58-6.92-3.53s-4.66-2.26-8.33-3.95-6.64-3-8.9-4q-18.37-8.47-29.53-20.91T1023.5,431.3q0-24.58,18.08-39.7t50-15.12Q1120.13,376.48,1140.75,386.09Z" transform="translate(-80.11 -110.75)" style="fill:#bababa"/><path d="M1289.37,377.62h43.79V568h-43.79V492h-69.79v76h-43.51V377.62h43.51V455h69.79Z" transform="translate(-80.11 -110.75)" style="fill:#bababa"/><rect width="494.5" height="494.5" rx="247.25" style="fill:#bababa"/><path d="M397.49,248.21,218.8,426.63a28.31,28.31,0,0,0,0,40.05v0h0a28.33,28.33,0,0,0,40.06,0l0,0L437.28,288a28.13,28.13,0,0,0,0-39.77h0A28.13,28.13,0,0,0,397.49,248.21Z" transform="translate(-80.11 -110.75)" style="fill:#181818"/><path d="M290.09,269.8a50.94,50.94,0,1,1-50.9-50.94A50.9,50.9,0,0,1,290.09,269.8ZM466.5,446.2a50.94,50.94,0,1,1-50.91-50.93A50.91,50.91,0,0,1,466.5,446.2Z" transform="translate(-80.11 -110.75)" style="fill:#181818;fill-rule:evenodd;opacity:0.7000000000000001;isolation:isolate"/></svg>